<svg xmlns="http://www.w3.org/2000/svg" width="126" height="181" viewBox="0 0 126 181" fill="none">
<path d="M40 60L40 145" stroke="#603A1B" stroke-width="2"/>
<path d="M37.7857 42H41V62L38.5 63.0909L34.9286 63.8182H31.3571L28.8571 63.0909L27.4286 61.2727L24.5714 60.1818H20.6429L17.7857 61.2727L13.1429 63.0909L8.5 64.5455L2.78571 66L4.21429 64.5455L5.28571 63.0909L7.07143 61.2727L10.6429 57.6364L12.4286 54.7273H10.6429L7.07143 54L4.21429 52.1818L1 49.6364H4.21429H7.07143L10.6429 48.5455L13.1429 47.0909L14.2143 46.3636L17.0714 44.1818H19.2143H21.7143L24.5714 45.2727L28.1429 46.3636H29.9286L31.3571 45.2727L34.2143 43.4545L37.7857 42Z" fill="#BB4B1B" stroke="#BB4B1B" stroke-width="0.5"/>
<path d="M39.8056 81.214C40.1767 81.3632 41.631 81.5885 42.3117 81.6826C42.9621 81.4051 50.6711 76.1626 50.9485 76.813C51.1704 77.3333 53.4324 78.6547 54.2662 79.7084L44.9996 84.3798L44.904 85.958L44.3445 87.3498L42.8572 88.3685L41.0925 88.7369L39.5142 88.6413L37.1946 87.7088L35.0615 86.3124L35.5301 83.8063L36.9265 81.6733C37.7316 81.458 39.4345 81.0648 39.8056 81.214Z" fill="#EB9C5A" stroke="#EB9C5A"/>
<path d="M74.5 138.5L75.4735 143.692C75.7928 145.395 75.0408 147.139 73.5993 148.1C73.2066 148.362 72.766 148.559 72.3081 148.673C70.389 149.153 68.4 148.2 67.571 146.404L66.3653 143.791C66.1226 143.266 65.8204 142.769 65.4648 142.312L62.5 138.5L59 133.5L55.5 128.5L52.5 123.5L51.3619 120.939C50.7936 119.661 50.5 118.277 50.5 116.878V115.5C50.5 115.222 50.6615 114.12 50.8158 113.138C50.9349 112.381 51.1488 111.643 51.4436 110.935L53.5 106L58 98L62.6017 90.6373C62.8669 90.213 63.1635 89.8093 63.4891 89.4294L69 83L74 78L76 75.5L76.0502 75.4246C76.6495 74.5258 76.8002 73.4006 76.4586 72.3757C76.1649 71.4948 76.2333 70.5335 76.6485 69.703L77.5 68L78 63.5H92.5L93.23 68.6102C93.4084 69.8588 93.8214 71.0624 94.4471 72.1574L94.6051 72.4339C95.1969 73.4696 95.9693 74.3911 96.8857 75.1547L97.1939 75.4116C98.057 76.1309 99.047 76.6823 100.113 77.0376C101.032 77.3439 101.994 77.5 102.962 77.5H105.5H110.5V80L110.086 83.7252C110.029 84.241 109.931 84.7515 109.795 85.2521L108.5 90V93L109 99.5V107L108.5 114L107.5 122L108.5 124.5L111.337 128.553C111.778 129.182 112.144 129.86 112.429 130.574L114.522 135.804C114.839 136.598 115.054 137.429 115.16 138.278L116 145V151.5V159.746C116 160.192 115.704 160.585 115.275 160.707L115.075 160.764C113.388 161.246 111.604 161.276 109.902 160.851L109.105 160.651C108.735 160.559 108.449 160.264 108.369 159.891L107 153.5C106.333 151.333 104.9 146.9 104.5 146.5C104.1 146.1 102.667 141 102 138.5L98 128.5C96.8333 125.667 94.5 119.8 94.5 119C94.5 118.2 93.1667 113.333 92.5 111L91 101.5L89.5 92L88.5 93L86 95.5L83.5 98L79 102L76.5 104L72 108L67.5 112L62.5 117.5L64 119L67 122L69.0954 124.445C69.6956 125.145 70.196 125.925 70.5825 126.762L72.5677 131.063C72.8551 131.686 73.0777 132.337 73.232 133.005L74.5 138.5Z" fill="#3C3535" stroke="#352E2E" stroke-width="0.5"/>
<path d="M89 93L93 90L95.5 87" stroke="#332C2C" stroke-width="0.5"/>
<path d="M77.5 27.5H82.5L85.5 30C86.8333 31.3333 89.5 34.1 89.5 34.5C89.5 34.9 92.1666 38.3333 93.5 40C94 41.5 95 44.6 95 45V47L94 51L93 56.5L89.5 54L85.5 49L80 42L79 45.5L80 47L82.5 50.5L86.5 55.5L92.5 60.5L93 62.5V67L94 72.5L99.5 77H90L85 76.5C82.8333 76 80.5 75.5 77.5 75C74.3807 74.4801 74.1666 73.5 73.5 73L75.5 67L76 64.5L76.5 60.5L77 57.5L77.5 54V50.5L79.5 41.5L77 50.5L76 54L75 57.5L73.5 61L71.5 65.5L70 69.5L69.0209 71.4582C68.6807 72.1386 68.1535 72.7079 67.5012 73.0993L63.5 75.5L56.5 79.5L54 81L51.5 82.5L48 76.5C51 74.5 54 71.5 61 67L63 57.5L65.5 45L67.5 36L70 31.5L70.8659 30.5103C72.5398 28.5973 74.958 27.5 77.5 27.5Z" fill="#94324B" stroke="#6D293A"/>
<path d="M102.5 27.4999C102.1 26.2999 91 26.6666 85.5 26.9999L89 30.5L92.5 33L95 37.5C96.5 39.1667 99.6 42.6 100 43C100.4 43.4 103.167 43.8333 104.5 44C104 39 102.9 28.6999 102.5 27.4999Z" fill="#94324B" stroke="#6D293A"/>
<path d="M84.5 23L83.5 22.5L84 24.5V25.5L83.5 27.5H84.5H88V26.5V25V23H87.5H86.5H85.5H84.5Z" fill="#EB9C5A"/>
<path d="M78.9998 45.5L80 42L84 47.5L86.5 50.5L87.6808 52.0744C88.8864 53.6819 90.3321 55.0944 91.9672 56.2623L92.2855 56.4896C92.5845 56.7033 93 56.4895 93 56.1219V56.0797C93 55.3611 93.0594 54.6438 93.1775 53.935L93.2243 53.6542C93.4071 52.5576 93.7528 51.4944 94.25 50.5L94.4293 50.1414C94.8076 49.3847 95.0707 48.5757 95.2098 47.7412C95.4012 46.5927 95.3542 45.4171 95.0719 44.2875L95 44L94.2322 41.8885C93.4136 39.6376 92.3285 37.4928 91 35.5L88.5 32.5L85.661 29.6611C85.554 29.554 85.4352 29.4595 85.3068 29.3793L81.7957 27.1848C81.7105 27.1316 81.7482 27 81.8487 27H84L86.5 28L90.5 31.5C91.5 32.3333 93.5 34.1 93.5 34.5C93.5 34.9 95.5 37.6667 96.5 39L98.2932 41.3055C99.3881 42.7132 100.987 43.641 102.752 43.8932C103.249 43.9642 103.753 43.9806 104.253 43.9421L108.742 43.5968C109.579 43.5324 110.42 43.5466 111.254 43.6393L112.787 43.8096C113.912 43.9347 114.992 44.3279 115.934 44.9563L116.023 45.015C116.991 45.6605 117.774 46.5474 118.294 47.5882C118.758 48.5166 118.974 49.5429 119.069 50.5766C119.138 51.3329 119.269 52 119.5 52C119.724 52 120.377 52.2092 121.055 52.4519C122.009 52.7935 122.833 53.4159 123.466 54.2071L123.556 54.3196C124.173 55.0914 124.565 56.0192 124.687 57C124.895 58.6614 124.916 60.3409 124.749 62.007L124.5 64.5C124 65.8333 123 68.6 123 69C123 69.2186 122.204 70.3429 121.264 71.5898C119.791 73.5431 117.99 75.2211 116 76.6429C115.669 76.8792 115.3 77.0571 114.909 77.1688L113.568 77.5521C112.528 77.8493 111.451 78 110.37 78H107.5L104.808 77.5514C102.615 77.1859 100.489 76.4944 98.5 75.5L97.1484 74.599C96.0682 73.8788 95.1946 72.8892 94.614 71.728C94.208 70.9161 93.9537 70.0371 93.8634 69.1339L93.5 65.5V64.5616C93.5 63.1924 93.3321 61.8283 93 60.5L90 58L87 55L84 52L81.5 49L78.9998 45.5Z" fill="#D19D3C"/>
<path d="M124.5 64.5L124.749 62.007C124.916 60.3409 124.895 58.6614 124.687 57V57M124.5 64.5C124 65.8333 123 68.6 123 69C123 69.2186 122.204 70.3429 121.264 71.5898C119.791 73.5431 117.99 75.2211 116 76.6429V76.6429M124.5 64.5L123.698 62.8962C123.236 61.9715 122.627 61.1273 121.896 60.3962L121.482 59.9823C120.834 59.3342 120.061 58.8245 119.21 58.4841L119.161 58.4642C118.394 58.1576 117.576 58 116.75 58V58C115.924 58 115.106 58.1576 114.339 58.4642L113 59L111.637 59.7787C110.244 60.575 109.117 61.7661 108.399 63.2017V63.2017C108.134 63.7323 107.927 64.2903 107.784 64.8658L107.644 65.4223C107.221 67.1147 107.221 68.8853 107.644 70.5777L107.723 70.8916C107.907 71.627 108.191 72.3338 108.567 72.992L109.104 73.9329C109.684 74.9476 110.591 75.7363 111.676 76.1703V76.1703C112.221 76.3885 112.8 76.5122 113.387 76.5362L116 76.6429M107.5 78H110.37C111.451 78 112.528 77.8493 113.568 77.5521L114.909 77.1688C115.3 77.0571 115.669 76.8792 116 76.6429V76.6429M107.5 78L104.808 77.5514C102.615 77.1859 100.489 76.4944 98.5 75.5V75.5L97.1484 74.599C96.0682 73.8788 95.1946 72.8892 94.614 71.728V71.728C94.208 70.9161 93.9537 70.0371 93.8634 69.1339L93.5 65.5V64.5616C93.5 63.1924 93.3321 61.8283 93 60.5V60.5M107.5 78L102.5 68M93 60.5L90 58L87 55L84 52L81.5 49L78.9998 45.5L80 42L84 47.5L86.5 50.5L87.6808 52.0744C88.8864 53.6819 90.3321 55.0944 91.9672 56.2623L92.2855 56.4896C92.5845 56.7033 93 56.4895 93 56.1219V56.0797C93 55.3611 93.0594 54.6438 93.1775 53.935L93.2243 53.6542C93.4071 52.5576 93.7528 51.4944 94.25 50.5L94.4293 50.1414C94.8076 49.3847 95.0707 48.5757 95.2098 47.7412V47.7412C95.4012 46.5927 95.3542 45.4171 95.0719 44.2875L95 44L94.2322 41.8885C93.4136 39.6376 92.3285 37.4928 91 35.5V35.5L88.5 32.5L85.661 29.6611C85.554 29.554 85.4352 29.4595 85.3068 29.3793L81.7957 27.1848C81.7105 27.1316 81.7482 27 81.8487 27H84L86.5 28L90.5 31.5C91.5 32.3333 93.5 34.1 93.5 34.5C93.5 34.9 95.5 37.6667 96.5 39L98.2932 41.3055C99.3881 42.7132 100.987 43.641 102.752 43.8932V43.8932C103.249 43.9642 103.753 43.9806 104.253 43.9421L108.742 43.5968C109.579 43.5324 110.42 43.5466 111.254 43.6393L112.787 43.8096C113.912 43.9347 114.992 44.3279 115.934 44.9563L116.023 45.015C116.991 45.6605 117.774 46.5474 118.294 47.5882V47.5882C118.758 48.5166 118.974 49.5429 119.069 50.5766C119.138 51.3329 119.269 52 119.5 52C119.724 52 120.377 52.2092 121.055 52.4519C122.009 52.7935 122.833 53.4159 123.466 54.2071L123.556 54.3196C124.173 55.0914 124.565 56.0192 124.687 57V57M93 60.5C94.5 61.1667 97.5 62.6 97.5 63M97.5 63C97.5 61.8333 97.5 59.4 97.5 59C97.5 58.7639 97.7323 57.9353 97.9912 57.0903C98.3159 56.0308 98.8115 55.0328 99.4262 54.1107L99.7257 53.6614C100.239 52.8917 100.868 52.2059 101.59 51.6281V51.6281C102.521 50.8835 103.59 50.3314 104.736 50.0039L106.5 49.5L108.139 49.2659C109.378 49.0889 110.628 49 111.88 49H113.416C114.137 49 114.856 49.0712 115.563 49.2125V49.2125C116.517 49.4033 117.441 49.7204 118.311 50.1555L119 50.5M97.5 63L102.5 68M102.5 68C102.5 67.5594 102.5 66.7952 102.5 66.0583C102.5 65.0207 102.574 63.9845 102.72 62.9573L102.876 61.8652C102.959 61.2896 103.092 60.7225 103.276 60.1708L103.313 60.0624C103.765 58.7061 104.526 57.4737 105.537 56.4628V56.4628C105.845 56.1546 106.175 55.8688 106.524 55.6073L106.609 55.5432C107.53 54.8522 108.557 54.3144 109.649 53.9502L109.928 53.8572C110.641 53.6195 111.374 53.4465 112.118 53.3403L113.128 53.196C114.041 53.0655 114.963 53 115.886 53H116.577C117.191 53 117.805 53.0508 118.411 53.1518L118.967 53.2445C119.98 53.4133 120.952 53.7713 121.833 54.2997V54.2997C122.606 54.7634 123.297 55.3515 123.878 56.0403L124.687 57M110.377 64.1156L110.344 64.2819C110.116 65.4199 110.073 66.587 110.217 67.7385L110.305 68.4374C110.433 69.4678 110.776 70.4599 111.31 71.3503L111.442 71.57C111.811 72.1851 112.287 72.7294 112.847 73.1775L113.329 73.563C114.087 74.1695 115.029 74.5 116 74.5V74.5C116.971 74.5 117.913 74.1695 118.671 73.563L119.399 72.9811C119.798 72.6614 120.161 72.2983 120.481 71.8986L120.598 71.7524C121.517 70.6033 122.127 69.2379 122.369 67.7863L122.379 67.7234C122.46 67.242 122.5 66.7547 122.5 66.2666V64.5903C122.5 64.3191 122.215 64.1427 121.972 64.264L121.841 64.3297C120.952 64.7741 120.002 65.0831 119.021 65.2464V65.2464C118.013 65.4145 116.985 65.4264 115.973 65.2819L115.289 65.1841C114.431 65.0616 113.587 64.8622 112.765 64.5884L111.075 64.0251C111.026 64.0086 110.981 63.9808 110.944 63.9439V63.9439C110.754 63.7542 110.429 63.8525 110.377 64.1156Z" stroke="#B5862F"/>
<path d="M77.5 48L78.5 45.5L80 40.5" stroke="#6D293A"/>
<path d="M68.7193 151.798L68.6695 151.674C68.2504 150.626 68.374 149.439 69 148.5H69.6495C70.2151 148.5 70.7793 148.444 71.3339 148.333L71.8219 148.236C72.5997 148.08 73.3396 147.774 73.9996 147.334C74.3324 147.112 74.6424 146.858 74.9252 146.575L76 145.5L76.4847 145.742C76.826 145.913 77.1375 146.138 77.4073 146.407L77.5364 146.536C77.8413 146.841 78.0709 147.213 78.2073 147.622L78.25 147.75C78.4122 148.237 78.4122 148.763 78.25 149.25C78.0877 149.737 78.0877 150.263 78.25 150.75L78.5 151.5L79.5 154L80.5 157.5L81.5 161.5L81.5757 162.03C81.8582 164.008 82 166.003 82 168H61.5V167.134C61.5 166.713 61.5516 166.293 61.6538 165.885L61.7938 165.325C61.9287 164.785 62.2077 164.292 62.6011 163.899C63.1766 163.323 63.9572 163 64.7712 163H66.5H70C70.3311 162.006 70.5 160.966 70.5 159.919V159V158.55C70.5 156.854 70.3325 155.163 70 153.5L69.5344 153.034C69.1818 152.682 68.9045 152.261 68.7193 151.798Z" fill="#5F0D0D"/>
<path d="M109 161L107.061 160.677C106.395 160.566 105.717 160.783 105.24 161.26L105.223 161.277C105.075 161.425 104.952 161.595 104.859 161.781C104.629 162.242 104.591 162.774 104.754 163.262L104.818 163.455C104.938 163.814 105.139 164.139 105.406 164.406L106 165L107 166V167.5V169.5V172.5C105.672 172.5 104.355 172.7 103.047 172.931C102.809 172.973 102.613 173 102.5 173C102 173 101 173.5 100.5 173.5C99.5246 173.5 99.3806 174.977 99.1441 175.924L99 176.5C100.33 177.165 101.72 177.706 103.15 178.114L104.5 178.5L109.5 179.5L114 180H117.5V177V175.268C117.5 174.091 117.416 172.915 117.25 171.75C117.084 170.585 117 169.409 117 168.232V167V166.031C117 165.346 117.084 164.664 117.25 164L117.447 163.213C117.482 163.071 117.5 162.926 117.5 162.781V162.562C117.5 161.514 116.516 160.746 115.5 161C113.512 161.331 111.484 161.355 109.489 161.07L109 161Z" fill="#5F0D0D"/>
<path d="M70 153.5L69.5344 153.034C69.1818 152.682 68.9045 152.261 68.7193 151.798L68.6695 151.674C68.2504 150.626 68.374 149.439 69 148.5V148.5H69.6495C70.2151 148.5 70.7793 148.444 71.3339 148.333L71.8219 148.236C72.5997 148.08 73.3396 147.774 73.9996 147.334V147.334C74.3324 147.112 74.6424 146.858 74.9252 146.575L76 145.5L76.4847 145.742C76.826 145.913 77.1375 146.138 77.4073 146.407L77.5364 146.536C77.8413 146.841 78.0709 147.213 78.2073 147.622L78.25 147.75C78.4122 148.237 78.4122 148.763 78.25 149.25V149.25C78.0877 149.737 78.0877 150.263 78.25 150.75L78.5 151.5L79.5 154L80.5 157.5L81.5 161.5L81.5757 162.03C81.8582 164.008 82 166.003 82 168V168H61.5V167.134C61.5 166.713 61.5516 166.293 61.6538 165.885L61.7938 165.325C61.9287 164.785 62.2077 164.292 62.6011 163.899V163.899C63.1766 163.323 63.9572 163 64.7712 163H66.5H70V163C70.3311 162.006 70.5 160.966 70.5 159.919V159V158.55C70.5 156.854 70.3325 155.163 70 153.5V153.5ZM70 153.5V153.5C71.6515 153.5 73.2878 153.185 74.8212 152.572L75 152.5L77 151.5M107 166V167.5V169.5V172.5V172.5C105.672 172.5 104.355 172.7 103.047 172.931C102.809 172.973 102.613 173 102.5 173C102 173 101 173.5 100.5 173.5V173.5C99.5246 173.5 99.3806 174.977 99.1441 175.924L99 176.5V176.5C100.33 177.165 101.72 177.706 103.15 178.114L104.5 178.5L109.5 179.5L114 180H117.5V177V175.268C117.5 174.091 117.416 172.915 117.25 171.75V171.75C117.084 170.585 117 169.409 117 168.232V167V166.031C117 165.346 117.084 164.664 117.25 164L117.447 163.213C117.482 163.071 117.5 162.926 117.5 162.781V162.562C117.5 161.514 116.516 160.746 115.5 161V161V161C113.512 161.331 111.484 161.355 109.489 161.07L109 161L107.061 160.677C106.395 160.566 105.717 160.783 105.24 161.26L105.223 161.277C105.075 161.425 104.952 161.595 104.859 161.781V161.781C104.629 162.242 104.591 162.774 104.754 163.262L104.818 163.455C104.938 163.814 105.139 164.139 105.406 164.406L106 165L107 166ZM107 166V166C108.369 166 109.698 166.5 111.066 166.5H112H114" stroke="#440808"/>
<path d="M80.5004 3.89934L80.0252 4.5647C79.3467 5.51454 78.8361 6.57363 78.5154 7.69598L78.4478 7.93247C78.1507 8.97241 78 10.0487 78 11.1303V13L78.2371 14.8968C78.4106 16.2852 78.8574 17.6255 79.5516 18.8403C80.1788 19.9379 80.9855 20.931 82.0114 21.6697C82.9657 22.3568 84.003 23 84.5 23H88V23.4192C88 24.776 88.5 26.1432 88.5 27.5C88.5 29.4455 90.8409 30.5324 92.302 31.8171C92.3821 31.8875 92.4493 31.9494 92.5 32C92.8287 32.3288 94.3058 32.68 95.3768 32.8873C95.7892 32.9671 96.191 33.0955 96.5668 33.2834C97.49 33.745 98.2117 34.5294 98.5951 35.4877L99 36.5C99.3333 37.5 100.1 39.7 100.5 40.5C101.366 42.2311 102.745 43.6387 104.215 44.8983L105.5 46L106.5 44L106.8 44.4C108.5 46.6663 111.167 48 114 48L113.904 47.7453C112.976 45.2686 112.5 42.6451 112.5 40V37.9271C112.5 36.331 112.128 34.7568 111.415 33.3292L111.309 33.118C111.103 32.7068 110.861 32.315 110.585 31.9472C109.872 30.9955 108.946 30.223 107.882 29.691L107.429 29.4646C106.811 29.1557 106.228 28.7824 105.689 28.351L105.22 27.9761C104.409 27.327 103.665 26.5978 103 25.7996L101.5 24L98 23L94.5 22.5L94 21.5L94.6107 20.8893C95.2013 20.2987 95.7173 19.6378 96.147 18.9216C96.712 17.98 97.1214 16.9535 97.3596 15.8816L97.6557 14.5492C97.8845 13.5195 98 12.4678 98 11.413V10.4103C98 8.82521 97.6309 7.26191 96.9221 5.84417L96.728 5.45598C96.2475 4.49503 95.5798 3.63982 94.764 2.94062C93.303 1.68834 91.4423 1 89.518 1H89H86.1344C85.0596 1 83.9995 1.25025 83.0381 1.73095C82.028 2.23598 81.1568 2.98041 80.5004 3.89934Z" fill="#211E1E" stroke="#1A1919" stroke-width="0.4"/>
<path d="M94.5 22V21L91.8276 22.1877C90.6226 22.7233 89.3186 23 88 23V24C89.9928 23.6679 91.9385 23.0978 93.7954 22.3019L94.5 22Z" fill="#AC6666"/>
</svg>