<svg width="310" height="70" viewBox="0 0 310 70" fill="none" xmlns="http://www.w3.org/2000/svg">
<path d="M113.705 57.3974L112.099 58.2004C110.506 58.9969 109.5 60.625 109.5 62.4059C109.5 63.7389 110.066 65.0092 111.057 65.9009L112.186 66.9172C113.676 68.2581 115.609 69 117.613 69H129.5H169.5L182.847 69.1992C187.238 69.2647 188.531 63.2432 184.5 61.5L183.98 61.448C181.018 61.1518 178.135 60.3177 175.473 58.9866L174.452 58.4761C173.819 58.1593 173.215 57.7862 172.648 57.3613C170.605 55.8285 168.119 55 165.565 55H162H154.816C153.611 55 152.412 55.1679 151.254 55.499L148.872 56.1793C147.036 56.7041 145.065 56.4656 143.406 55.5179C142.805 55.1745 142.157 54.9209 141.483 54.7653L139.507 54.3093C137.186 53.7737 134.791 53.6395 132.424 53.9126L123 55L115.365 56.7965C114.79 56.9317 114.233 57.1334 113.705 57.3974Z" fill="url(#paint0_linear_4002_48)"/>
<path d="M0.5 31.7026V36.5C0.5 39.5376 2.96243 42 6 42H135.85C138.457 42 140.907 40.7523 142.441 38.6434C143.454 37.2504 144 35.5725 144 33.8499V28.5C144 27.6181 142.56 26.5022 141.267 25.7079C140.453 25.208 139.503 25 138.548 25C136.917 25 135.352 25.6481 134.198 26.8016L131 30L131.5 26C131.5 24.3333 132 23 132 20.5C132 19.9758 131.785 18.6358 131.637 17.4928C131.516 16.5564 131.055 15.6666 130.3 15.1C129.781 14.7105 129.149 14.5 128.5 14.5H127.928C126.404 14.5 124.974 15.2357 124.089 16.4754L123 18L120.5 22V19.162C120.5 18.3953 120.344 17.6366 120.042 16.932C119.382 15.3907 118.072 14.2215 116.466 13.7397L116.019 13.6057C114.705 13.2116 113.302 13.2328 112 13.6666L111.672 13.7761C110.254 14.2486 109.003 15.1208 108.07 16.2876L107.5 17L105 20.5L103.897 17.9267C103.634 17.3117 103.288 16.7352 102.87 16.2127C101.976 15.0948 100.777 14.2591 99.4192 13.8064L98.4084 13.4695C97.4835 13.1612 96.4973 13.0838 95.5356 13.2441C94.5287 13.4119 93.5815 13.8348 92.7843 14.4725L92.5207 14.6834C91.8456 15.2235 91.2723 15.8796 90.8275 16.6209L90 18L89 14.5L88.8904 14.2443C87.9966 12.1588 86.3479 10.488 84.2745 9.56645L84.0885 9.48376C83.3671 9.16317 82.6007 8.95563 81.8162 8.86846C79.7008 8.63342 77.5827 9.28627 75.9667 10.6714L75 11.5L74 10L72.9662 8.96618C72.3262 8.32625 71.5873 7.79366 70.7779 7.38893C69.6087 6.80434 68.3195 6.5 67.0123 6.5H66.75C65.2703 6.5 63.811 6.8445 62.4875 7.50623L61.5 8L59.5 10.5L58.5 9L58.2924 8.72315C57.4457 7.5942 56.3173 6.70741 55.0202 6.15152L54.7763 6.04698C53.9342 5.68609 53.0276 5.5 52.1114 5.5C50.1366 5.5 48.2603 6.36296 46.9751 7.86238L46.5137 8.4007C46.172 8.79934 45.8689 9.22947 45.6084 9.68532L45.1842 10.4276C44.3985 11.8027 43.8052 13.2792 43.4211 14.8157L43 16.5L39 12.5L37.2652 11.6326C35.7999 10.8999 34.127 10.694 32.5277 11.0494L31.5167 11.2741C30.8527 11.4216 30.2445 11.7555 29.7636 12.2364L29.1264 12.8736C28.2005 13.7995 26.7264 13.8811 25.7039 13.0631C25.2482 12.6986 24.6821 12.5 24.0986 12.5H21.9693C21.0005 12.5 20.0426 12.7033 19.1574 13.0967C17.1694 13.9803 15.7123 15.7469 15.2231 17.8667L14.5 21H11.5C9.70843 21 8.11786 22.1464 7.55132 23.8461L6.5 27H5.20256C3.80694 27 2.48341 27.6199 1.58995 28.6921C0.885686 29.5372 0.5 30.6025 0.5 31.7026Z" fill="url(#paint1_linear_4002_48)"/>
<path d="M200.36 22.311L202.5 23.5C208.452 25.8148 214.77 27.0498 221.155 27.147L260.75 27.75L307.514 28.4621C308.881 28.483 310 27.3809 310 26.0141C310 25.3648 309.742 24.7421 309.283 24.2829L308.267 23.2669C307.441 22.4408 306.389 21.8777 305.243 21.6486L302 21L301.581 17.3718C301.079 13.021 296.214 10.6788 292.5 13L289.5 15.5L288.822 14.737C286.709 12.36 283.68 11 280.5 11C277.939 11 275.483 12.0174 273.672 13.8284L273 14.5L272.72 12.9595C272.303 10.6666 270.306 9 267.976 9H267.662C265.774 9 264.097 10.2084 263.5 12L263.455 11.9697C262.527 11.351 261.896 10.3758 261.713 9.27557C261.574 8.44597 261.18 7.6803 260.586 7.08559L259.51 6.01041C256.52 3.01986 251.49 3.76829 249.5 7.5L247.5 11L245.426 8.33282C244.502 7.14532 243.207 6.30172 241.747 5.93685C240.603 5.65066 239.403 5.67065 238.268 5.99482L236.5 6.5L235.753 5.00688C235.26 4.01941 234.517 3.17788 233.598 2.56547C232.556 1.87073 231.332 1.5 230.079 1.5H227.663C226.891 1.5 226.121 1.59477 225.371 1.78217C223.502 2.24953 221.82 3.27718 220.551 4.72738L219 6.5L217.342 3.73673C216.476 2.29337 215.122 1.20742 213.525 0.675135C212.205 0.234913 210.783 0.195459 209.44 0.561747L208.184 0.904297C206.772 1.28958 205.535 2.15076 204.684 3.34231C203.914 4.42043 203.5 5.71223 203.5 7.03714V11L201.289 9.89443C200.163 9.33137 198.837 9.33137 197.711 9.89443C196.356 10.572 195.5 11.957 195.5 13.4721V14.5C195.5 15.8117 195.834 17.1017 196.471 18.2483L196.689 18.6402C197.546 20.1825 198.817 21.4541 200.36 22.311Z" fill="url(#paint2_linear_4002_48)"/>
<defs>
<linearGradient id="paint0_linear_4002_48" x1="154.5" y1="19" x2="154.5" y2="106.5" gradientUnits="userSpaceOnUse">
<stop offset="0.227656" stop-color="#4575C5"/>
<stop offset="0.227756" stop-color="white" stop-opacity="0.4"/>
<stop offset="0.445967" stop-color="#416CBD"/>
<stop offset="0.594816" stop-color="#314C95" stop-opacity="0.9"/>
<stop offset="0.942129" stop-color="#314C95" stop-opacity="0.9"/>
</linearGradient>
<linearGradient id="paint1_linear_4002_48" x1="155" y1="-12" x2="155" y2="70" gradientUnits="userSpaceOnUse">
<stop offset="0.04" stop-color="#C1D2FE" stop-opacity="0.1"/>
<stop offset="0.35" stop-color="#5E8DF3" stop-opacity="0.55"/>
<stop offset="0.6" stop-color="#32519D" stop-opacity="0.5"/>
<stop offset="0.73" stop-color="#32519E" stop-opacity="0.7"/>
</linearGradient>
<linearGradient id="paint2_linear_4002_48" x1="154.5" y1="-29.5" x2="154.5" y2="91.5" gradientUnits="userSpaceOnUse">
<stop offset="0.0517387" stop-color="white" stop-opacity="0.15"/>
<stop offset="0.256415" stop-color="#5075C5"/>
<stop offset="0.409922" stop-color="#426ABF" stop-opacity="0.5"/>
<stop offset="0.47355" stop-color="#32519D" stop-opacity="0.5"/>
</linearGradient>
</defs>
</svg>
