<svg width="176" height="198" viewBox="0 0 176 198" fill="none" xmlns="http://www.w3.org/2000/svg">
<path d="M1.03163 135.872C1.32164 137.726 1.6405 139.789 1.95835 141.88C3.45022 151.695 7.08645 161.349 12.8321 169.445L15 172.5H7.60236C6.25624 172.5 4.96526 173.035 4.01341 173.987C2.06103 175.939 2.02747 179.094 3.93788 181.087L12 189.5L22 197.5H32.5H63.5C67.9 197.5 74.6667 178.167 77.5 168.5L80.5 155.5C81.3333 151.5 82.5 138.5 82.5 137V122L82.0312 117.781C81.2829 111.046 74.1085 107.068 68 110L69.5 104C70.8333 99.5 72 92.6 72 91C72 89.7762 71.3174 83.9888 70.3998 80.4401C69.9691 78.7746 68.7348 77.5409 67.2596 76.6558C65.4539 75.5723 63.3876 75 61.2817 75H61C62.659 70.3549 63.6782 65.5057 64.0296 60.5859L64.5 54V45.0902C64.5 44.6981 64.4535 44.3074 64.3615 43.9263L64.0973 42.8319C63.0793 38.6142 57.3078 38.0557 55.5 42V35.4057C55.5 30.1695 54.6558 24.9675 53 20C50.1052 11.9359 39.2602 10.6098 34.5075 17.7387L34 18.5C30.3759 24.4304 28.0714 31.0718 27.2433 37.9724L27 40V55.5L26.7898 55.2022C23.875 51.073 17.8307 50.8484 14.6176 54.75C14.2075 55.248 13.862 55.7958 13.5891 56.3804L12.2923 59.1593C11.1118 61.689 10.5 64.4467 10.5 67.2383V75L12 96.5L15 110.5L16.5 115.5L9.94963 118.12C9.31741 118.373 8.70471 118.672 8.11654 119.015C4.84893 120.921 2.50421 124.082 1.62801 127.762L1.29142 129.176C0.768894 131.371 0.683074 133.643 1.03163 135.872Z" fill="url(#paint0_linear_4002_62)"/>
<path d="M92.7929 171.671L94.1431 177.072C95.0382 180.653 96.6586 184.011 98.904 186.94C104.008 193.597 111.918 197.5 120.306 197.5H125H131.5C140.102 197.5 148.31 193.89 154.122 187.548L156 185.5L161.195 178.097C170.515 164.816 173.036 147.923 168 132.5L166 124L164 115.5C163 109.167 160.5 91.5 159.5 86.5C158.843 83.2127 156.344 71.5984 156.032 70.1489C156.011 70.0493 155.992 69.9497 155.976 69.849C155.183 64.773 148.384 63.6292 145.974 68.1663L145 70C145 63.3496 144.343 56.7155 143.039 50.1942L142.5 47.5L142.391 46.9894C141.495 42.8122 139.083 39.1155 135.62 36.6142C133.788 35.2914 131.201 36.0557 130.382 38.1614L129.676 39.9769C128.895 41.9837 128.38 44.0837 128.142 46.2238L128 47.5V52.5V58.5C126.276 57.6382 124.182 58.1691 123.077 59.7478L122.282 60.8833C121.768 61.6167 121.442 62.4643 121.331 63.3526L120.5 70C120.5 76.9575 121.584 83.8725 123.713 90.4963L125 94.5C122.885 88.9486 114.576 91.1032 115.425 96.9827L115.5 97.5L116.5 110L116.379 109.452C114.925 102.832 105.221 103.727 105 110.5V111.393C105 118.456 105.501 125.509 106.5 132.5C101.759 130.393 96.2527 132.99 94.864 137.99L92.5 146.5L92.0243 149.164C90.6899 156.637 90.9518 164.307 92.7929 171.671Z" fill="url(#paint1_linear_4002_62)"/>
<path d="M50.5 192L44.5 167L42.75 154.25M41 70V92.5M28.5 104V104C28.5 111.471 30.8869 118.746 35.3125 124.765L41 132.5M41 132.5V141.5L42.75 154.25M41 132.5V119.5V96.5V92.5M44.5 64.5L50.5 70M50.5 70V60M50.5 70C50.5 75.5 41 92.5 41 92.5M48.5 114L53 121.5M53 121.5L58 112.5M53 121.5L55.5 135M55.5 135L61.5 124.5M55.5 135L42.75 154.25" stroke="url(#paint2_linear_4002_62)"/>
<path d="M129 73V73C130.635 77.9046 133.593 82.2622 137.547 85.5923L141 88.5M141 88.5L139.752 82.8854C138.586 77.6371 136.997 72.4918 135 67.5V67.5M141 88.5V88.5C139.02 95.7588 138.524 103.342 139.541 110.797L141 121.5" stroke="url(#paint3_linear_4002_62)"/>
<path d="M107.5 138.5L112.5 144L121 154.25M121 154.25V154.25C121 147.476 119.733 140.763 117.265 134.455L116.5 132.5M121 154.25V156.522C121 167.801 122.343 179.039 125 190V190L125.968 192.904C126.722 195.165 125.038 197.5 122.655 197.5V197.5C121.607 197.5 120.615 197.03 119.952 196.219L116.5 192L107.5 182.5" stroke="url(#paint4_linear_4002_62)"/>
<defs>
<linearGradient id="paint0_linear_4002_62" x1="82.5" y1="-99" x2="82.5" y2="210" gradientUnits="userSpaceOnUse">
<stop offset="0.437507" stop-color="white"/>
<stop offset="0.63881" stop-color="#6866C9" stop-opacity="0.8"/>
<stop offset="0.937089" stop-color="#261E4C" stop-opacity="0.2"/>
</linearGradient>
<linearGradient id="paint1_linear_4002_62" x1="82.5" y1="-99" x2="82.5" y2="210" gradientUnits="userSpaceOnUse">
<stop offset="0.437507" stop-color="white"/>
<stop offset="0.63881" stop-color="#6866C9" stop-opacity="0.8"/>
<stop offset="0.937089" stop-color="#261E4C" stop-opacity="0.2"/>
</linearGradient>
<linearGradient id="paint2_linear_4002_62" x1="84.75" y1="39.5" x2="84.75" y2="218" gradientUnits="userSpaceOnUse">
<stop offset="0.289611" stop-color="#F0FEE8" stop-opacity="0.4"/>
<stop offset="0.571528" stop-color="#393276" stop-opacity="0.4"/>
</linearGradient>
<linearGradient id="paint3_linear_4002_62" x1="84.75" y1="39.5" x2="84.75" y2="142.5" gradientUnits="userSpaceOnUse">
<stop offset="0.289611" stop-color="#F0FEE8" stop-opacity="0.6"/>
<stop offset="0.789957" stop-color="#504AA6" stop-opacity="0.1"/>
</linearGradient>
<linearGradient id="paint4_linear_4002_62" x1="80.75" y1="63.5" x2="80.75" y2="211" gradientUnits="userSpaceOnUse">
<stop offset="0.289611" stop-color="#F0FEE8" stop-opacity="0.6"/>
<stop offset="0.662719" stop-color="#393276" stop-opacity="0.15"/>
</linearGradient>
</defs>
</svg>
