<svg width="393" height="176" viewBox="0 0 393 176" fill="none" xmlns="http://www.w3.org/2000/svg">
<path d="M3.78686 65.4263L9.33526 54.3295C9.44494 54.1101 9.5706 53.8991 9.71124 53.6982L13 49L20 41C22.128 39.138 25.4046 39.5529 27.0013 41.8866L30.5 47L36 54L36.3235 54.5L41.5 62.5L53.5 50.5L64.5 41L68.6126 37.8013C68.8703 37.6009 69.1076 37.3758 69.3214 37.1292L75.5 30L82 24.5L89 18L95.5 13L101.508 8.8697C102.766 8.00449 104.351 7.76188 105.811 8.21101L107.246 8.65271C108.951 9.17715 110.247 10.5697 110.648 12.3073L111.155 14.5046C111.38 15.4791 111.892 16.3638 112.625 17.0443L118.5 22.5L121.5 32.5L131 26L140.881 20.6105C141.615 20.2099 142.438 20 143.275 20H144.066C145.003 20 145.921 20.2633 146.716 20.76L148.587 21.9294C149.189 22.3055 149.704 22.8054 150.097 23.3959L153.5 28.5L155.25 32L156.825 35.1491C156.941 35.3827 157.076 35.6067 157.228 35.8192L160.504 40.4062C161.443 41.7202 162.958 42.5 164.573 42.5H169L171.259 39.3367C171.42 39.1126 171.598 38.9021 171.793 38.7074L172.964 37.5355C174.917 35.5829 178.083 35.5829 180.036 37.5355L181.5 39L191.5 52L197.5 59L201.12 63.0724C201.372 63.3565 201.657 63.611 201.967 63.8307L213.5 72L198.66 74.3187C197.897 74.438 197.172 74.7323 196.542 75.1787L186.284 82.445C185.766 82.8117 185.183 83.0765 184.567 83.2253L171 86.5L149.873 92.396C149.625 92.4652 149.382 92.5535 149.148 92.6601L127.961 102.29C127.654 102.43 127.335 102.538 127.006 102.613L110 106.5L93.1687 111.79C92.7251 111.929 92.3031 112.13 91.9149 112.386L69.3728 127.254C69.1248 127.418 68.8626 127.559 68.5895 127.676L41.9485 139.094C41.3228 139.362 40.7584 139.755 40.29 140.249L13.97 168.004C13.6581 168.333 13.303 168.618 12.9143 168.851L8.5 171.5L7.12899 172.145C3.81276 173.706 0 171.286 0 167.621V71.8787C0 70.6676 0.439591 69.4976 1.23712 68.5862L1.75 68L3.07761 66.4827C3.35805 66.1622 3.5964 65.8072 3.78686 65.4263Z" fill="url(#paint0_linear_4002_52)"/>
<path d="M41.5 62.5L53.5 50.5L64.5 41L68.6126 37.8013C68.8703 37.6009 69.1076 37.3758 69.3214 37.1292L75.5 30M41.5 62.5L49.2616 79.4784C49.3876 79.7542 49.7282 79.8552 49.9842 79.6927L75.5 63.5L95.5 50.5L110 41L121.5 32.5M41.5 62.5L36.3235 54.5M75.5 30L82 24.5L89 18L95.5 13L101.508 8.8697C102.766 8.00449 104.351 7.76188 105.811 8.21101L107.246 8.65271C108.951 9.17715 110.247 10.5697 110.648 12.3073L111.155 14.5046C111.38 15.4791 111.892 16.3638 112.625 17.0443L118.5 22.5M75.5 30L76.7338 31.2338C77.2352 31.7352 77.8634 32.0908 78.5512 32.2628V32.2628C79.1741 32.4185 79.8259 32.4185 80.4488 32.2628L80.6814 32.2046C81.2231 32.0692 81.7375 31.8417 82.202 31.532L84.146 30.236C84.3816 30.079 84.6301 29.9422 84.8888 29.8272L87.7831 28.5409C88.5782 28.1875 89.4569 28.0653 90.3183 28.1883L90.6755 28.2394C91.8298 28.4043 92.8483 29.0805 93.4482 30.0803V30.0803C93.8093 30.6821 94 31.3707 94 32.0725V34L94.477 39.7237C94.4922 39.9069 94.5347 40.0868 94.603 40.2574L94.8108 40.7769C95.1583 41.6458 96.236 41.948 96.9847 41.3865V41.3865C97.3122 41.1408 97.518 40.766 97.5494 40.3577L97.9612 35.004C97.987 34.6689 98.0465 34.3371 98.1389 34.0139L99 31L101.229 25.6503C101.409 25.2189 101.648 24.8148 101.94 24.4499L103.093 23.0084C103.36 22.6746 103.706 22.4119 104.098 22.2435V22.2435C105.602 21.5994 107.319 22.4877 107.661 24.0868L108.5 28L109.165 29.9951C109.289 30.3659 109.799 30.4022 109.974 30.0526V30.0526C109.991 30.0177 110.004 29.9806 110.012 29.9424L110.5 27.5L110.847 26.2857C111.26 24.8395 112.302 23.6561 113.685 23.0636L114.543 22.6958C114.845 22.5666 115.169 22.5 115.497 22.5H116.086C116.351 22.5 116.605 22.6054 116.793 22.7929L117.086 23.0858C117.608 23.6077 118.5 23.238 118.5 22.5V22.5M118.5 22.5L121.5 32.5M121.5 32.5L131 26M131 26L140.881 20.6105C141.615 20.2099 142.438 20 143.275 20H144.066C145.003 20 145.921 20.2633 146.716 20.76L148.587 21.9294C149.189 22.3055 149.704 22.8054 150.097 23.3959L153.5 28.5L155.25 32M131 26V26C130.276 27.0863 131.245 28.5011 132.52 28.2178L133.5 28L137.804 27.0436C137.934 27.0146 138.06 26.9698 138.18 26.9101V26.9101C139.114 26.4431 140.24 26.9611 140.494 27.9743L140.91 29.6405C140.97 29.8793 141 30.1245 141 30.3706V32.2101C141 32.3991 141.056 32.5839 141.161 32.7412V32.7412C141.551 33.326 142.417 33.3054 142.778 32.7027L143.5 31.5L145.235 29.114C146.268 27.6946 148.437 27.8741 149.222 29.444V29.444C149.404 29.8084 149.678 30.1189 150.017 30.3448L151.941 31.6272C152.307 31.8715 152.604 32.2072 152.801 32.6011L153.289 33.5784C153.418 33.8368 153.682 34 153.971 34V34C154.289 34 154.574 33.8028 154.686 33.5051L155.25 32M169 42.5H164.573C162.958 42.5 161.443 41.7202 160.504 40.4062L157.228 35.8192C157.076 35.6067 156.941 35.3827 156.825 35.1491L155.25 32M169 42.5L171.259 39.3367C171.42 39.1126 171.598 38.9021 171.793 38.7074L172.964 37.5355C174.917 35.5829 178.083 35.5829 180.036 37.5355L181.5 39L191.5 52L197.5 59L201.12 63.0724C201.372 63.3565 201.657 63.6109 201.967 63.8307L213.5 72L198.66 74.3187C197.897 74.438 197.172 74.7323 196.542 75.1787L186.284 82.445C185.766 82.8117 185.183 83.0765 184.567 83.2253L171 86.5L149.873 92.396C149.625 92.4652 149.382 92.5535 149.148 92.6601L127.961 102.29C127.654 102.43 127.335 102.538 127.006 102.613L110 106.5L93.1687 111.79C92.7251 111.929 92.3031 112.13 91.9149 112.386L69.3728 127.254C69.1248 127.418 68.8626 127.559 68.5895 127.676L41.9485 139.094C41.3228 139.362 40.7584 139.755 40.29 140.249L13.97 168.004C13.6581 168.333 13.303 168.618 12.9143 168.851L8.5 171.5L7.12899 172.145C3.81276 173.706 0 171.286 0 167.621V71.8787C0 70.6676 0.439591 69.4976 1.23712 68.5862L1.75 68M169 42.5C169 42.5 173 43.5 175 44.5C177 45.5 185.5 50.5 185.5 50.5M89 70L101.5 60.5L108.203 55.7682C109.348 54.9601 110.78 54.6695 112.149 54.9672L121.5 57L124.827 58.1091C126.486 58.6622 128.314 58.3081 129.647 57.1754L135.684 52.044C136.833 51.0673 138.361 50.6614 139.843 50.9393L144.572 51.826C145.185 51.941 145.772 52.1697 146.301 52.5004L153.5 57M1.75 68L3.07761 66.4827C3.35805 66.1622 3.5964 65.8072 3.78686 65.4263L9.33526 54.3295C9.44494 54.1101 9.5706 53.8991 9.71124 53.6982L13 49L20 41V41C22.128 39.138 25.4046 39.5529 27.0013 41.8866L30.5 47L36 54L36.3235 54.5M1.75 68V69.6145C1.75 70.5487 2.98513 70.8826 3.45588 70.0756V70.0756C3.48523 70.0253 3.51931 69.9779 3.55766 69.9341L5.88484 67.2745C6.59351 66.4646 7.6173 66 8.69348 66V66C10.1071 66 11.3993 65.2013 12.0315 63.937L13.5 61L14.5259 58.9482C15.0051 57.9898 16.2825 57.7825 17.0402 58.5402L17.3529 58.8529C17.4471 58.9471 17.5 59.0749 17.5 59.2081V59.2081C17.5 59.7835 18.3103 59.9071 18.4819 59.3579L19.2507 56.8978C19.4634 56.2171 20.4363 56.2452 20.6093 56.9371L20.9431 58.2726C21.0966 58.8863 22 58.7751 22 58.1425V58.1425C22 58.0491 22.0244 57.9574 22.0707 57.8763L23.4274 55.5021C23.8026 54.8454 24 54.1022 24 53.3459V50.5451C24 49.6918 24.6918 49 25.5451 49V49C26.1303 49 26.6653 49.3307 26.9271 49.8541L28.2929 52.5858C28.7456 53.4913 29.5396 54.1799 30.5 54.5V54.5L32.3226 55.229C32.7701 55.408 33.2476 55.5 33.7296 55.5V55.5C34.554 55.5 35.3559 55.2311 36.0136 54.7342L36.3235 54.5" stroke="url(#paint1_linear_4002_52)" stroke-width="0.5"/>
<path d="M305.5 60.5L300 63.5L309.592 71.7841C310.5 72.5684 311.66 73 312.86 73H327.974C328.651 73 329.321 72.8625 329.943 72.5957L348.467 64.6572C349.462 64.2306 350.569 64.1387 351.621 64.3953L369.84 68.8391C370.278 68.9459 370.728 68.993 371.179 68.9791L397.186 68.1789C400.245 68.0848 402.503 65.2891 401.95 62.2789L393.639 16.983C393.325 15.2724 391.425 14.3751 389.904 15.2197C389.047 15.6963 387.991 15.6365 387.193 15.0661L385 13.5L379.5 9L375.986 5.48564C375.663 5.16339 375.299 4.88671 374.901 4.66329L367.798 0.667365C367.618 0.566429 367.395 0.585802 367.236 0.716174L362.322 4.73622C362.108 4.91177 361.908 5.10486 361.726 5.31349L358.5 9L352.5 16L347.5 21.5L341 27L335.5 32.5L329.479 37.1319C329.161 37.3764 328.873 37.6583 328.623 37.9715L325.229 42.2132C325.077 42.4041 324.938 42.606 324.815 42.8173L321.877 47.8532C321.627 48.282 321.315 48.6712 320.95 49.0079L315.335 54.1903C315.112 54.3964 314.871 54.5816 314.614 54.7438L305.5 60.5Z" fill="url(#paint2_linear_4002_52)"/>
<path d="M215.106 60.9526L205.5 72L226.248 74.3578C227.07 74.4511 227.902 74.3392 228.67 74.0321L241.836 68.7655C242.277 68.5894 242.74 68.4768 243.212 68.4311L258 67L274 66L289.104 63.5638C289.368 63.5213 289.634 63.5 289.901 63.5H300L288.023 57.2718C287.675 57.0912 287.308 56.952 286.929 56.8571L277.5 54.5L270.5 52L263.5 48.5L252.5 42.5L244.736 38.618C243.328 37.9142 241.672 37.9142 240.264 38.618L233.939 41.7804C233.003 42.2483 232.238 42.998 231.751 43.9238L228.058 50.9406C227.691 51.637 227.165 52.2371 226.523 52.692L215.989 60.1533C215.664 60.3836 215.368 60.6519 215.106 60.9526Z" fill="url(#paint3_linear_4002_52)"/>
<defs>
<linearGradient id="paint0_linear_4002_52" x1="9.50002" y1="-28" x2="8.49999" y2="171.5" gradientUnits="userSpaceOnUse">
<stop stop-color="white"/>
<stop offset="0.263266" stop-color="#C0CFF6"/>
<stop offset="0.421245" stop-color="#809FED"/>
<stop offset="0.549213" stop-color="#6C80D4"/>
<stop offset="0.655138" stop-color="#6175CA"/>
<stop offset="0.790124" stop-color="#5F55C1"/>
<stop offset="0.932617" stop-color="#544CB0"/>
</linearGradient>
<linearGradient id="paint1_linear_4002_52" x1="126.5" y1="-30" x2="89.5178" y2="34.0084" gradientUnits="userSpaceOnUse">
<stop stop-color="#90A1EE"/>
<stop offset="1" stop-color="white"/>
</linearGradient>
<linearGradient id="paint2_linear_4002_52" x1="289" y1="-63.5" x2="289" y2="155.5" gradientUnits="userSpaceOnUse">
<stop offset="0.0642322" stop-color="white"/>
<stop offset="0.307135" stop-color="#C0CFF6"/>
<stop offset="0.421245" stop-color="#809FED"/>
<stop offset="0.549213" stop-color="#6C80D4"/>
<stop offset="0.866352" stop-color="#475698"/>
</linearGradient>
<linearGradient id="paint3_linear_4002_52" x1="253" y1="15.5" x2="253.5" y2="74.5" gradientUnits="userSpaceOnUse">
<stop stop-color="#7A89E7"/>
<stop offset="1" stop-color="#7A83E2"/>
</linearGradient>
</defs>
</svg>
