<svg width="211" height="106" viewBox="0 0 211 106" fill="none" xmlns="http://www.w3.org/2000/svg">
<path d="M142.931 22.3317L139.098 24.5681C138.657 24.8253 138.837 25.5 139.348 25.5H161C162.2 25.5 172.167 28 177 28C183.833 28.8333 198 29 200 29C201.55 29 199.496 28.0992 204.311 29.0899C207.478 29.7416 208.589 28.0748 206.724 25.4339C206.29 24.8205 206 24.3048 206 24C206 22.8 205.333 22.1667 205 22C206.5 22 206 20 204.5 20C204.135 20 204.408 18.9831 205.007 17.6098C206.612 13.9302 205.164 11.5164 201.22 12.2676L200 12.5L197.892 11.446C196.701 10.8505 195.299 10.8505 194.108 11.446C192.797 12.1013 191.919 13.3879 191.787 14.8471L191.5 18L190.534 17.324C188.443 15.8604 185.537 16.6678 184.5 19C183.694 19 183.063 18.3083 183.136 17.5062L183.413 14.4564C183.468 13.8504 183.251 13.2512 182.821 12.8209C182.312 12.3116 181.572 12.1069 180.874 12.2816L178 13L178.935 9.72866C178.978 9.57656 179.007 9.42071 179.022 9.26317C179.214 7.14812 176.87 5.75347 175.103 6.93152L175 7V6.01603C175 4.73488 174.447 3.51608 173.483 2.67243C172.009 1.38251 169.864 1.21029 168.202 2.24849L167.791 2.50587C167.268 2.83247 166.81 3.25287 166.441 3.74586L164.46 6.38685C164.155 6.79324 163.914 7.24371 163.745 7.72275L161.525 14.0124C161.183 14.9806 160.552 15.8201 159.716 16.4169L157.5 18L155 18.5L149 20.5L144.135 21.8268C143.714 21.9418 143.309 22.1115 142.931 22.3317Z" fill="url(#paint0_linear_4002_67)"/>
<path d="M1.50007 44.9999C1.4376 45.0624 1.38033 45.126 1.32794 45.1907C-0.410209 47.3364 3.73865 49.9999 6.50007 49.9999H33.7995C36.4627 49.9999 37.611 46.6237 35.5001 44.9999L28.7105 40.2473C26.8252 38.9276 24.2826 39.0652 22.5507 40.5806L21.5 41.5L21.4141 41.3174C19.914 38.1297 15.3414 38.2423 14 41.5V38C13.6667 35.3333 14 34.0999 14 32.4999V32.4996C14 25.4999 14 21.5 12.5 20.4998C11.8705 20.0801 10.9085 19.5933 9.8658 19.4163C8.66851 19.213 7.64506 20.0678 7.00143 21.0976L6.26003 22.2839C5.7634 23.0786 5.50007 23.9968 5.50007 24.9338V29.4999L5.27126 28.9769C3.85745 25.7454 1.61544 26.1536 0.500013 29.4999C0.130858 30.6074 0.443128 34.3552 1.27952 36.4987C1.41214 36.8385 1.54471 37.1785 1.63319 37.5324L3.5 44.9999C2.16667 45.4999 4.07404 42.4259 1.50007 44.9999Z" fill="url(#paint1_linear_4002_67)"/>
<path d="M163.44 103.39L164.032 103.77C166.296 105.226 168.931 106 171.623 106H188.887C190.891 106 192.824 105.258 194.314 103.917L194.398 103.841C196.054 102.351 197 100.228 197 98C197 95.7909 195.209 94 193 94H192.098C192.044 94 192 93.9561 192 93.902V89.5V86C191.667 82.835 187.539 81.8481 185.811 84.52L185.606 84.8365C185.57 84.8917 185.485 84.8718 185.477 84.8065L184.577 77.1586C184.526 76.7222 184.407 76.2963 184.226 75.8963L183.094 73.4077C181.855 70.6809 177.894 70.9597 177.049 73.8333C177.032 73.8908 176.953 73.8964 176.928 73.8418L175.002 69.604C174.676 68.8875 174.126 68.2962 173.435 67.9193L171.686 66.9651C170.366 66.2453 168.73 67.0327 168.468 68.5131L168.223 69.9002C167.749 72.5909 167.952 75.3575 168.817 77.9495L168.941 78.3231C168.967 78.4009 168.898 78.4773 168.818 78.4595L168.656 78.4235C166.251 77.8892 163.81 79.156 162.863 81.4294C162.313 82.7484 162.344 84.2378 162.949 85.5327L165.15 90.25C165.219 90.3978 165.03 90.5301 164.915 90.4147L163.675 89.1754C162.931 88.4306 161.894 88.0551 160.845 88.1505C158.776 88.3386 157.31 90.2558 157.671 92.3017L158.348 96.1404C158.449 96.7113 158.619 97.2679 158.855 97.7977L159.081 98.3067C160.007 100.39 161.522 102.157 163.44 103.39Z" fill="url(#paint2_linear_4002_67)"/>
<path d="M133.076 102.262L132.75 102.85C131.674 104.787 129.612 105.967 127.397 105.913L48 104H39.9371C38.6541 104 37.3795 103.793 36.1623 103.387L31.7427 101.914C30.9604 101.653 30.3465 101.04 30.0858 100.257C30.0287 100.086 29.947 99.9213 29.8745 99.7561C29.1478 98.1001 32.443 99.1477 29 98C26.11 97.0367 21.7377 90.4235 20.9016 87.1627C20.6414 86.1479 20.7574 84.853 20.3895 83.8721C19.8983 82.562 20.562 81.1017 21.8721 80.6105L23.5 80V77.0043C23.5 76.6698 23.4525 76.337 23.3588 76.0159L22.9582 74.6425C21.8833 70.9571 26.8757 68.6861 28.9474 71.918C28.9818 71.9715 29 72.0338 29 72.0974V73C31.3594 69.3822 36.9699 70.8986 37.1856 75.2124L37.5 81.5C40.2559 80.016 43.547 82.2281 43.2135 85.3404L42.5 92H44H45V89.5C45 88.7514 45.227 88.3239 45.5596 88.09C46.8809 87.1606 48.6854 88.514 49.9824 89.4868L50 89.5L50.6727 80.9793C50.8987 78.1169 54.7708 77.4051 56 80L55.1329 73.9301C55.0448 73.3137 55.0521 72.6874 55.1545 72.0733L55.4634 70.2196C55.773 68.3617 57.3805 67 59.264 67C60.6467 67 61.9234 67.7409 62.6094 68.9414L62.8721 69.4012C63.2836 70.1213 63.5 70.9362 63.5 71.7656V73L63.762 72.931C68.2248 71.7566 72.4831 75.4106 72 80L71 85.5L71.5048 84.7427C72.3876 83.4186 74.0474 82.8491 75.5571 83.3524C76.7586 83.7528 77.6533 84.7664 77.9016 86.0082L78.3542 88.2712C78.4512 88.7559 78.5 89.249 78.5 89.7432V93C78.5 93 78 95 81 93C84 91 82.1 91 84.5 91C88 91 89.2475 91.9714 88 91C85.8452 89.3221 88.627 84.5994 89.6501 83.0211C89.8791 82.6678 90.1233 82.3334 90.3918 82.009C91.5603 80.5969 95.1189 76.6768 98 77.5C98.769 77.7197 100.182 79.0492 100.431 79.8091C100.603 80.3336 100.919 81.1014 101.462 82.4089C101.483 82.4599 101.539 82.4922 101.593 82.4813L101.743 82.4515C103.935 82.013 105.826 84.0276 105.25 86.1877L104.5 89C107.974 87.3871 111.25 91.5622 108.858 94.553L108.648 94.8149C108.558 94.9278 108.541 95.0828 108.606 95.212L109 96L109.742 95.2575C109.914 95.0864 110.065 94.8964 110.193 94.6912C111.337 92.8609 113.928 92.6662 115.333 94.3049L118.5 98L118 94C117.548 91.5161 117.403 90.6639 117.471 90.1077C117.711 88.1447 119.794 86.8383 121.756 86.593C122.244 86.532 122.745 86.5858 123.181 86.8139C124.154 87.3236 124.597 87.859 124.74 88.2098C124.868 88.525 124.794 88.3326 125.09 88.1645C125.262 88.0666 125.426 87.9733 125.583 87.8847C127.724 86.677 131 88.5422 131 91C131 92.5 132 93 129.5 97L130.951 97.3627C132.449 97.7372 133.5 99.0835 133.5 100.628C133.5 101.2 133.354 101.762 133.076 102.262Z" fill="url(#paint3_linear_4002_67)"/>
<defs>
<linearGradient id="paint0_linear_4002_67" x1="174" y1="1" x2="174" y2="28" gradientUnits="userSpaceOnUse">
<stop stop-color="white"/>
<stop offset="0.5" stop-color="#CCCDF2"/>
<stop offset="1" stop-color="#8585DE"/>
</linearGradient>
<linearGradient id="paint1_linear_4002_67" x1="21.0001" y1="24.5" x2="21.0001" y2="92.5" gradientUnits="userSpaceOnUse">
<stop offset="0.0265981" stop-color="white"/>
<stop offset="0.404412" stop-color="#7C83DB"/>
</linearGradient>
<linearGradient id="paint2_linear_4002_67" x1="134.5" y1="67" x2="134.5" y2="119" gradientUnits="userSpaceOnUse">
<stop stop-color="white" stop-opacity="0.7"/>
<stop offset="0.4575" stop-color="#A28FEA" stop-opacity="0.8"/>
<stop offset="0.769231" stop-color="#5A54B8" stop-opacity="0.2"/>
</linearGradient>
<linearGradient id="paint3_linear_4002_67" x1="134.5" y1="67" x2="134.5" y2="119" gradientUnits="userSpaceOnUse">
<stop stop-color="white" stop-opacity="0.7"/>
<stop offset="0.4575" stop-color="#A28FEA" stop-opacity="0.8"/>
<stop offset="0.769231" stop-color="#5A54B8" stop-opacity="0.2"/>
</linearGradient>
</defs>
</svg>
