<svg width="40" height="11" viewBox="0 0 40 11" fill="none" xmlns="http://www.w3.org/2000/svg">
<path d="M2.5 8.5L4.24902 10.4677C4.91117 11.2126 6.13636 10.6363 5.98481 9.65123L5.5 6.5L4.59592 1.97959C4.5354 1.67699 4.33856 1.41928 4.06255 1.28128L1.94721 0.223607C1.28231 -0.108844 0.5 0.374652 0.5 1.11803V3V5.19722C0.5 5.39465 0.558438 5.58766 0.66795 5.75192L2.5 8.5Z" fill="url(#paint0_linear_4002_71)"/>
<path d="M36.9806 11H39C39.5523 11 40 10.5523 40 10V6.5V3.8198C40 3.34312 39.6635 2.93271 39.1961 2.83922L38.3656 2.67313C37.8711 2.57422 37.3803 2.85904 37.2208 3.33748L36.7279 4.81623C36.5918 5.22457 36.2097 5.5 35.7792 5.5H35.5C34.9477 5.5 34.5 5.94772 34.5 6.5V8.14922C34.5 8.37629 34.5773 8.5966 34.7191 8.77391L36.1998 10.6247C36.3895 10.8619 36.6768 11 36.9806 11Z" fill="url(#paint1_linear_4002_71)"/>
<defs>
<linearGradient id="paint0_linear_4002_71" x1="20.25" y1="-0.5" x2="20.25" y2="13" gradientUnits="userSpaceOnUse">
<stop stop-color="#C7C2F0"/>
<stop offset="1" stop-color="#5A55B9"/>
</linearGradient>
<linearGradient id="paint1_linear_4002_71" x1="20.25" y1="-0.5" x2="20.25" y2="13" gradientUnits="userSpaceOnUse">
<stop stop-color="#C7C2F0"/>
<stop offset="1" stop-color="#5A55B9"/>
</linearGradient>
</defs>
</svg>
