<svg width="393" height="128" viewBox="0 0 393 128" fill="none" xmlns="http://www.w3.org/2000/svg">
<path d="M13.2083 79.2778L4.20772 87.8498C3.42615 88.5941 2.41354 89.0489 1.33795 89.1385C-1.114 89.3428 -3 91.3925 -3 93.853V124.426C-3 127.905 1.91235 128.625 2.91185 125.294C2.97047 125.098 3.04873 124.91 3.14544 124.73L13.1035 106.236C13.366 105.749 13.7077 105.308 14.1145 104.933L20 99.5C22.1858 97.3142 25.8794 97.9679 27.1823 100.771L36.2511 120.283C38.0783 124.214 43.7009 124.116 45.3901 120.123L46.2071 118.192C46.4013 117.733 46.6629 117.306 46.9834 116.924L56.7425 105.307C56.9139 105.102 57.1013 104.913 57.303 104.738L67.5898 95.8542C67.8625 95.6188 68.1598 95.4135 68.4765 95.2419L79.2352 89.4143C79.7413 89.1402 80.1962 88.7807 80.58 88.3518L88.136 79.9069C88.3779 79.6364 88.5897 79.3405 88.7676 79.0242L92.3849 72.5935C92.7887 71.8756 93.3636 71.2686 94.0584 70.8265L101.838 65.8758C103.195 65.012 104.886 64.8542 106.379 65.4517L107.64 65.9559C108.528 66.3112 109.296 66.9137 109.852 67.6921L114 73.5L117.841 78.1093C118.59 79.0079 119 80.1406 119 81.3102V87.7299C119 93.2274 126.581 94.6983 128.637 89.5997L130.729 84.4133C131.223 83.1879 132.182 82.2078 133.396 81.6874L138.5 79.5L142.03 77.9309C142.67 77.6468 143.361 77.5 144.061 77.5H144.986C145.973 77.5 146.938 77.7922 147.76 78.3397L148.756 79.0039C149.248 79.332 149.678 79.7449 150.026 80.2233L153.217 84.6103C153.405 84.8695 153.568 85.1462 153.704 85.4367L157 92.5L158.983 97.317C159.871 99.4722 162.13 100.728 164.429 100.345L169.175 99.5541C169.391 99.5181 169.61 99.5 169.829 99.5H169.93C171.22 99.5 172.422 98.8439 173.119 97.7586C174.659 95.3641 178.189 95.4563 179.602 97.9278L180.054 98.7193C180.348 99.2343 180.745 99.6836 181.219 100.04L188.033 105.15C188.343 105.382 188.625 105.651 188.874 105.949L198.5 117.5L204.82 125.307C206.131 126.927 208.31 127.563 210.287 126.904L212.581 126.14C214.623 125.459 216 123.548 216 121.396V120.046C216 118.446 216.765 116.943 218.059 116.002L226.098 110.156C226.692 109.724 227.184 109.166 227.538 108.522L231.721 100.917C232.227 99.9958 233.011 99.2578 233.961 98.8078L239.082 96.3823C240.858 95.5409 242.963 95.8183 244.46 97.0913L251.479 103.057C251.825 103.351 252.209 103.596 252.621 103.787L265 109.5L272.489 113.024C273.155 113.337 273.882 113.5 274.618 113.5H285.245C286.069 113.5 286.88 113.704 287.606 114.093L299.394 120.407C300.12 120.796 300.931 121 301.755 121H303.5C308 121 311 115.5 313.5 115.5C316.376 115.5 318.351 112.124 319.704 110.366C320.178 109.75 320.681 109.139 321.028 108.444L324.972 100.556C325.319 99.8615 325.823 99.2575 326.444 98.7918L328.929 96.9286C329.308 96.6443 329.644 96.3076 329.929 95.9286L333.36 91.353C333.782 90.7906 334.318 90.3236 334.932 89.9822L337.367 88.6292C338.11 88.2166 338.946 88 339.796 88H342.694C345.169 88 347.272 86.1893 347.639 83.7417L348.3 79.3309C348.431 78.4591 348.79 77.6375 349.341 76.9491L353.957 71.1791C354.316 70.7297 354.751 70.3458 355.241 70.0442L361 66.5L365.986 63.2946C367.26 62.476 368.835 62.2784 370.271 62.757L375.03 64.3434C375.343 64.4476 375.644 64.5823 375.93 64.7456L382.5 68.5L387.872 72.529C388.288 72.8411 388.75 73.0863 389.242 73.2559L396.738 75.8408C399.877 76.9232 403.18 74.7017 403.361 71.3862L404.826 44.5167C405.115 39.2276 398.059 37.1798 395.471 41.8013L385.859 58.9663C385.304 59.9567 384.417 60.7187 383.354 61.1172C381.88 61.6702 380.228 61.4653 378.933 60.5689L374.871 57.7566C374.624 57.5859 374.393 57.3933 374.181 57.1812L370.574 53.5737C370.194 53.1937 369.751 52.8849 369.306 52.5832C367.264 51.1974 364.285 48.1076 362.5 49C360.807 49.8466 359.429 52.651 358.823 55.3413C358.607 56.2962 357.146 56.7586 356.545 55.986L355.388 54.4987C355.13 54.1676 354.915 53.8053 354.748 53.4205L338.5 16L331.882 2.76393C331.035 1.07001 329.304 0 327.41 0H326.139C324.773 0 323.466 0.559216 322.523 1.54762L313.5 11L301.5 27L291 45L281.495 58.3937C280.557 59.715 279.037 60.5 277.417 60.5H276.022C274.436 60.5 272.944 59.7475 272.001 58.472L265.29 49.3919C265.097 49.1312 264.879 48.89 264.64 48.6714L253.5 38.5L242.35 27.3501C242.117 27.1173 241.862 26.908 241.588 26.7254L239.649 25.4325C237.561 24.0406 234.765 24.4118 233.112 26.3002L232.952 26.4837C232.652 26.8263 232.4 27.2082 232.204 27.6189L227 38.5L222.32 48.328C222.108 48.7735 221.831 49.1852 221.498 49.5497L211.5 60.5L203.921 67.237C203.006 68.0506 201.824 68.5 200.599 68.5H195.118C194.382 68.5 193.655 68.3375 192.989 68.0241L186.842 65.1314C185.966 64.7193 185.229 64.062 184.719 63.2391L179 54L167 38.5L157 27L143 11L135.206 3.54491C133.175 1.60182 129.941 1.71472 128.05 3.79475L121.5 11L112 23L97.5 38.5L80 54L68.5283 64.0377C68.1778 64.3444 67.7862 64.6006 67.3648 64.7989L63.7072 66.5201C61.3359 67.6361 58.5053 66.7316 57.2204 64.4473L55 60.5L50.5 49L47.9118 44.1471C47.0428 42.5177 45.3466 41.5 43.5 41.5H43.1728C41.7869 41.5 40.4631 42.0752 39.5175 43.0884L34.3442 48.6313C34.1153 48.8765 33.9117 49.1441 33.7364 49.43L24.5 64.5L13.7435 78.6791C13.5814 78.8927 13.4024 79.0929 13.2083 79.2778Z" fill="url(#paint0_linear_4002_46)"/>
<defs>
<linearGradient id="paint0_linear_4002_46" x1="201" y1="-66.5" x2="201.5" y2="145" gradientUnits="userSpaceOnUse">
<stop stop-color="white"/>
<stop offset="0.415802" stop-color="#629BF5"/>
<stop offset="0.73821" stop-color="#5764D6"/>
</linearGradient>
</defs>
</svg>
