<svg width="93" height="88" viewBox="0 0 93 88" fill="none" xmlns="http://www.w3.org/2000/svg">
<path d="M5.00726 2.46048L2.4072 0.33316C2.14387 0.11771 1.81411 0 1.47388 0C0.659878 0 0 0.659882 0 1.47388V54.5V58C0 74.5685 13.4315 88 30 88H65.1269C68.027 88 70.9117 87.5795 73.6912 86.7516L93 81C80.3251 78.6419 70.8244 68.0489 69.8542 55.1931L69.6813 52.9016C69.5606 51.3031 69.312 49.7169 68.9379 48.1581L67.4565 41.9853C66.8218 39.3407 65.8304 36.7947 64.5096 34.4172L62.2346 30.3222C61.8504 29.6307 60.9366 29.4507 60.3189 29.9449C57.8599 31.9121 56.2137 34.7178 55.696 37.824L55 42L54 38L52.5 29L51.8726 25.4447C51.3679 22.5848 48.883 20.5 45.9789 20.5C44.3917 20.5 42.8695 21.1305 41.7471 22.2529L38 26V21.5V16.8669C38 15.2836 36.7164 14 35.1331 14C33.867 14 32.7509 14.8305 32.3871 16.0431L31.5 19L28.5 9.5C27.9187 6.69925 23.7804 7.19173 23.8726 10.0507L24 14L22.2708 8.81243C21.7871 7.36125 20.6323 6.23302 19.1703 5.78316C16.8138 5.0581 14.2952 6.262 13.3795 8.55115L13.1813 9.04683C13.0607 9.34831 12.968 9.6602 12.9043 9.9786L11.5 17L8.48161 7.56754C7.84093 5.56542 6.63422 3.79164 5.00726 2.46048Z" fill="url(#paint0_linear_4002_61)" fill-opacity="0.3"/>
<defs>
<linearGradient id="paint0_linear_4002_61" x1="63.5" y1="-39" x2="63.4999" y2="70" gradientUnits="userSpaceOnUse">
<stop stop-color="#FAFCFE"/>
<stop offset="0.305" stop-color="#664BFB" stop-opacity="0.8"/>
<stop offset="0.355" stop-color="#BAAEF8"/>
<stop offset="0.755" stop-color="#4F43A7"/>
<stop offset="0.90549" stop-color="#211439"/>
</linearGradient>
</defs>
</svg>
