<svg width="169" height="81" viewBox="0 0 169 81" fill="none" xmlns="http://www.w3.org/2000/svg">
<path d="M0.916634 52.2499L3.12897 60.0936C4.67299 65.5679 7.84702 70.4424 12.2289 74.0687C17.2517 78.2256 23.5673 80.5 30.0872 80.5H44.8376C47.9012 80.5 50.9201 79.7655 53.6412 78.358C60.0042 75.0668 64 68.5013 64 61.3376V55.9336C64 52.9961 63.5384 50.0769 62.6322 47.2826L60.7396 41.4471C58.9695 35.9893 55.3062 31.3039 50.4508 28.2468C46.5807 25.8101 42.0733 24.5 37.5 24.5C39.1476 20.8754 40 16.94 40 12.9585V12L40.2471 9.61091C40.8376 3.90358 35.3711 -0.529988 29.9085 1.22583C28.3416 1.72949 26.9696 2.70719 25.9821 4.02392L23.8366 6.88455C21.3462 10.205 20 14.2437 20 18.3943V19.8445C20 22.9184 19.3978 25.9625 18.2274 28.8049L16.5 33C14.1147 28.4943 8.31192 27.1124 4.15173 30.0592L3.74798 30.3452C1.39719 32.0103 0 34.7122 0 37.593V45.6233C0 47.8638 0.30844 50.0936 0.916634 52.2499Z" fill="url(#paint0_linear_4002_60)"/>
<path d="M168.407 70.081L168.067 70.9888C165.921 76.7098 160.452 80.5 154.342 80.5H154H143.5H109.5C101.334 80.5 94.2776 74.7955 92.5666 66.8108L92.5 66.5L89.5376 53.8042C89.1804 52.2731 89 50.7061 89 49.1339V47.6437C89 41.0774 92.5701 35.0303 98.3194 31.8582L102.227 29.7025C103.054 29.2461 103.714 28.5374 104.109 27.6796C105.875 23.8537 111.481 24.4199 112.446 28.5216L113.143 31.4827C113.376 32.4746 113.882 33.3817 114.602 34.1022L123.5 43L125.299 44.6995C130.054 49.1895 133.881 54.5686 136.564 60.5319L137 61.5C137 57.9697 138.36 54.5752 140.798 52.0215L146.287 46.2707C147.086 45.4333 148.056 44.7775 149.131 44.3476L149.755 44.0981C151.501 43.3996 153.462 43.4812 155.145 44.3222C157.225 45.3623 158.602 47.4224 158.767 49.742L159.5 60L163.731 57.8843C164.237 57.6316 164.794 57.5 165.359 57.5C167.37 57.5 169 59.1299 169 61.1406V66.8115C169 67.9281 168.799 69.0355 168.407 70.081Z" fill="url(#paint1_linear_4002_60)"/>
<defs>
<linearGradient id="paint0_linear_4002_60" x1="84" y1="-2" x2="84" y2="81" gradientUnits="userSpaceOnUse">
<stop offset="0.0579193" stop-color="white" stop-opacity="0.3"/>
<stop offset="0.504515" stop-color="#8366E6" stop-opacity="0.5"/>
<stop offset="1" stop-color="#211439" stop-opacity="0.5"/>
</linearGradient>
<linearGradient id="paint1_linear_4002_60" x1="84" y1="-2" x2="84" y2="81" gradientUnits="userSpaceOnUse">
<stop offset="0.0579193" stop-color="white" stop-opacity="0.3"/>
<stop offset="0.504515" stop-color="#8366E6" stop-opacity="0.5"/>
<stop offset="1" stop-color="#211439" stop-opacity="0.5"/>
</linearGradient>
</defs>
</svg>
