<svg width="198" height="85" viewBox="0 0 198 85" fill="none" xmlns="http://www.w3.org/2000/svg">
<path d="M6 38L1 41.5L5.5 39.5L9.00908 37.7455C9.33538 37.5823 9.67855 37.4554 10.0325 37.3669L11.26 37.06C12.6812 36.7047 14.1868 36.9906 15.3789 37.842L16.6633 38.7595C16.8874 38.9196 17.0979 39.0979 17.2926 39.2926L19 41L19.8791 39.8278C20.2887 39.2817 20.8058 38.8253 21.3984 38.4866L22.1586 38.0522C23.3162 37.3907 24.6667 37.5 26 37.5C26.8944 37.5 33.8333 39 35 39L29.5 37L26.9433 35.9043C26.3209 35.6375 25.6508 35.5 24.9737 35.5H24.1023C23.0602 35.5 22.0441 35.8256 21.1961 36.4313L19 38L17.5733 36.93C17.1931 36.6448 16.774 36.4153 16.329 36.2484L14.5438 35.5789C13.5412 35.2029 12.4443 35.1588 11.4146 35.453L10.0818 35.8338C9.69533 35.9442 9.32362 36.1008 8.97468 36.3002L6 38Z" fill="#94A6E4"/>
<path d="M60 79.5L55 81.5L60 80L65.7814 78.2211C66.2578 78.0745 66.7534 78 67.2518 78H70.1886C70.726 78 71.2599 78.0866 71.7698 78.2566L75.7122 79.5707C76.5555 79.8518 77.3086 80.3526 77.8939 81.0216L80.5 84L83.6776 80.4252C84.2177 79.8176 84.8967 79.35 85.661 79.0728C86.8835 78.6294 88.6761 78 89 78C89.4079 78 92.8111 78.6656 94.0507 78.9108C94.3503 78.97 94.6427 79.0571 94.9262 79.1705L99.5 81L104 83L99.5 80.5L95.0018 78.7007C94.6683 78.5673 94.3213 78.4702 93.9669 78.4111L89.88 77.73C88.9773 77.5796 88.0507 77.6797 87.201 78.0196L84.6402 79.0439C83.8912 79.3435 83.2258 79.8199 82.7008 80.4324L80.5 83L77.8346 80.3346C77.2858 79.7858 76.6166 79.3722 75.8802 79.1267L71.7698 77.7566C71.2599 77.5866 70.726 77.5 70.1886 77.5H67.2518C66.7534 77.5 66.2578 77.5745 65.7814 77.7211L60 79.5Z" fill="#94A6E4"/>
<path d="M158.5 4L154 7C154.528 6.64793 157.553 5.18664 159 4.5L162.944 2.52786C163.639 2.18073 164.404 2 165.18 2H167.474C168.151 2 168.821 2.13754 169.443 2.40427L171.115 3.12069C171.7 3.37126 172.231 3.73109 172.681 4.18088L174.33 5.83032C174.443 5.94302 174.541 6.0691 174.623 6.20576C175.304 7.33946 176.891 7.48145 177.762 6.48647L179.061 5.00123C179.351 4.67024 179.702 4.39883 180.096 4.20215L182.444 3.02786C183.139 2.68073 183.904 2.5 184.68 2.5H186.093C186.693 2.5 187.288 2.60783 187.849 2.81835L191 4L197 7L193 4L190.277 2.44372C189.763 2.15024 189.201 1.95022 188.618 1.85297L185.45 1.32506C184.197 1.11622 182.912 1.39214 181.855 2.09677L179 4L176 6L174.5 4.5L172.53 2.92401C172.178 2.64263 171.79 2.41006 171.376 2.23263L169.443 1.40427C168.821 1.13754 168.151 1 167.474 1H165.275C164.438 1 163.615 1.20992 162.881 1.61052L158.5 4Z" fill="#94A6E4"/>
<path d="M51.5 83L55 81.5M55 81.5L60 79.5L65.7814 77.7211C66.2578 77.5745 66.7534 77.5 67.2518 77.5H70.1886C70.726 77.5 71.2599 77.5866 71.7698 77.7566L75.8802 79.1267C76.6166 79.3722 77.2858 79.7858 77.8346 80.3346L80.5 83L82.7008 80.4324C83.2258 79.8199 83.8912 79.3435 84.6402 79.0439L87.201 78.0196C88.0507 77.6797 88.9773 77.5796 89.88 77.73L93.9669 78.4111C94.3213 78.4702 94.6682 78.5673 95.0018 78.7007L99.5 80.5L104 83L99.5 81L94.9262 79.1705C94.6427 79.0571 94.3503 78.97 94.0507 78.9108C92.8111 78.6656 89.4079 78 89 78C88.6761 78 86.8835 78.6294 85.661 79.0728C84.8967 79.35 84.2177 79.8176 83.6776 80.4252L80.5 84L77.8939 81.0216C77.3086 80.3526 76.5555 79.8518 75.7122 79.5707L71.7698 78.2566C71.2599 78.0866 70.726 78 70.1886 78H67.2518C66.7534 78 66.2578 78.0745 65.7814 78.2211L60 80L55 81.5ZM1 41.5L6 38L8.97468 36.3002C9.32362 36.1008 9.69533 35.9442 10.0818 35.8338L11.4146 35.453C12.4443 35.1588 13.5412 35.2029 14.5438 35.5789L16.329 36.2484C16.774 36.4153 17.1931 36.6448 17.5733 36.93L19 38L21.1961 36.4313C22.0441 35.8256 23.0602 35.5 24.1023 35.5H24.9737C25.6508 35.5 26.3209 35.6375 26.9433 35.9043L29.5 37L35 39C33.8333 39 26.8944 37.5 26 37.5V37.5C24.6667 37.5 23.3162 37.3907 22.1586 38.0522L21.3984 38.4866C20.8058 38.8253 20.2887 39.2817 19.8791 39.8278L19 41L17.2926 39.2926C17.0979 39.0979 16.8874 38.9196 16.6633 38.7595L15.3789 37.842C14.1868 36.9906 12.6812 36.7047 11.26 37.06L10.0325 37.3669C9.67855 37.4554 9.33538 37.5823 9.00908 37.7455L5.5 39.5L1 41.5ZM154 7L158.5 4L162.881 1.61052C163.615 1.20992 164.438 1 165.275 1H167.474C168.151 1 168.821 1.13754 169.443 1.40427L171.376 2.23263C171.79 2.41006 172.178 2.64263 172.53 2.92401L174.5 4.5L176 6L179 4L181.855 2.09677C182.912 1.39214 184.197 1.11622 185.45 1.32506L188.618 1.85297C189.201 1.95022 189.763 2.15024 190.277 2.44372L193 4L197 7L191 4L187.849 2.81835C187.288 2.60783 186.693 2.5 186.093 2.5H184.68C183.904 2.5 183.139 2.68073 182.444 3.02786L180.096 4.20215C179.702 4.39883 179.351 4.67024 179.061 5.00123L177.762 6.48647C176.891 7.48145 175.304 7.33945 174.623 6.20576V6.20576C174.541 6.0691 174.443 5.94302 174.33 5.83032L172.681 4.18088C172.231 3.73109 171.7 3.37126 171.115 3.12069L169.443 2.40427C168.821 2.13754 168.151 2 167.474 2H165.18C164.404 2 163.639 2.18073 162.944 2.52786L159 4.5C157.553 5.18664 154.528 6.64793 154 7Z" stroke="#C0B9F0" stroke-width="0.2"/>
</svg>
